<?xml version="1.0" encoding="UTF-8"?>
<!DOCTYPE svg PUBLIC "-//W3C//DTD SVG 1.1//EN" "http://www.w3.org/Graphics/SVG/1.1/DTD/svg11.dtd">
<!-- Creator: CorelDRAW 2019 (64-Bit) -->
<svg xmlns="http://www.w3.org/2000/svg" xml:space="preserve" width="135px" height="35px" version="1.1" style="shape-rendering:geometricPrecision; text-rendering:geometricPrecision; image-rendering:optimizeQuality; fill-rule:evenodd; clip-rule:evenodd"
viewBox="0 0 135 35.33"
 xmlns:xlink="http://www.w3.org/1999/xlink"
 xmlns:xodm="http://www.corel.com/coreldraw/odm/2003">
 <defs>
  <style type="text/css">
   <![CDATA[
    .fil0 {fill:#2897CF}
    .fil1 {fill:#FE5000}
   ]]>
  </style>
 </defs>
 <g id="Layer_x0020_1">
  <metadata id="CorelCorpID_0Corel-Layer"/>
  <path class="fil0" d="M117.53 13.44c2.85,0 5.14,2.3 5.14,5.11 0,2.82 -2.29,5.1 -5.14,5.1 -2.84,0 -5.13,-2.28 -5.13,-5.1 0,-2.81 2.29,-5.11 5.13,-5.11z"/>
  <path class="fil1" d="M19.31 5.46c0,-1.07 0.39,-1.97 1.15,-2.72 0.77,-0.76 1.69,-1.14 2.74,-1.14 1.07,0 1.97,0.38 2.72,1.14 0.76,0.75 1.14,1.65 1.14,2.72l0 16.31c0,1.86 -0.36,3.6 -1.07,5.26 -0.71,1.64 -1.68,3.09 -2.9,4.33 -1.22,1.24 -2.66,2.21 -4.3,2.91 -1.66,0.7 -3.41,1.06 -5.26,1.06 -1.86,0 -3.62,-0.36 -5.26,-1.06 -1.66,-0.7 -3.1,-1.67 -4.32,-2.91 -1.22,-1.24 -2.18,-2.69 -2.9,-4.33 -0.7,-1.66 -1.05,-3.4 -1.05,-5.26l0 -16.31c0,-1.07 0.38,-1.97 1.13,-2.72 0.75,-0.76 1.65,-1.14 2.71,-1.14 1.1,0 2.01,0.38 2.77,1.14 0.74,0.75 1.12,1.65 1.12,2.72l0 16.31c0,0.79 0.16,1.55 0.47,2.25 0.31,0.7 0.72,1.32 1.24,1.83 0.52,0.52 1.12,0.93 1.82,1.23 0.72,0.31 1.47,0.47 2.27,0.47 0.79,0 1.54,-0.16 2.25,-0.47 0.7,-0.3 1.32,-0.71 1.83,-1.23 0.52,-0.51 0.92,-1.13 1.23,-1.83 0.33,-0.7 0.47,-1.46 0.47,-2.25l0 -16.31 0 0 0 0zm97.63 -5.46c7.67,0.17 13.22,3.75 16.29,9.86 1.15,2.12 1.78,4.51 1.77,7.24 -0.07,3.37 -0.88,6.58 -2.91,9.49 -1.32,1.9 -3.05,3.49 -5.15,4.8 -1.7,1.11 -3.51,1.97 -5.4,2.6 -1.28,0.43 -2.63,0.77 -3.91,0.91 -0.77,0.12 -1.49,0.19 -2.16,0.21l-2.2 0c-0.52,-0.29 -0.57,-0.56 0,-0.8l1.55 -0.59 2.12 -0.67c2.7,-0.85 4.79,-1.93 6.44,-3.2 2.14,-1.44 3.58,-3.06 4.57,-4.78 1.06,-1.4 1.4,-3.23 1.45,-5.26 -0.04,-2.27 -0.45,-4.17 -1.28,-5.62 -1.02,-1.79 -2.19,-3.23 -3.51,-4.33 -2.04,-1.66 -4.29,-2.65 -6.72,-2.52 -3.52,-0.03 -6.16,1.56 -8.23,3.84 -1.13,1.48 -1.86,2.9 -2.04,4.57 -0.14,2.07 -0.25,4.12 0.91,5.81 0.2,0.34 0.44,0.65 0.62,0.94l2.03 -2.22 1.39 10.64 -9.93 0 1.56 -2.12c-2.68,-2.78 -3.96,-5.98 -4.48,-9.36 -0.2,-1.76 -0.14,-3.31 0,-4.79 0.92,-4.23 2.53,-7.49 5.21,-9.76 3.21,-3.23 7.36,-4.89 12.01,-4.89l0 0 0 0zm-28.35 2.74c0.76,-0.76 1.66,-1.14 2.72,-1.14 1.1,0 2.02,0.38 2.77,1.14 0.74,0.75 1.12,1.65 1.12,2.72l0 25.41c0,1.09 -0.38,2.01 -1.12,2.77 -0.75,0.74 -1.68,1.12 -2.77,1.12 -1.06,0 -1.96,-0.38 -2.72,-1.12 -0.74,-0.76 -1.12,-1.68 -1.12,-2.77l0 -25.41c0,-1.07 0.38,-1.97 1.12,-2.72zm-22.03 18.31l0 6.5 6.59 0c0.87,0 1.63,-0.31 2.27,-0.94 0.64,-0.64 0.95,-1.4 0.95,-2.28 0,-0.92 -0.31,-1.69 -0.95,-2.32 -0.64,-0.64 -1.39,-0.96 -2.27,-0.96l-6.59 0 0 0zm0 -12.27l0 5.65 5.79 0c0.77,0 1.44,-0.28 1.98,-0.85 0.57,-0.54 0.85,-1.22 0.85,-1.98 0,-0.77 -0.28,-1.43 -0.85,-2 -0.54,-0.54 -1.2,-0.83 -1.98,-0.83l-5.79 0 0 0.01zm-3.88 25.98c-1.07,0 -1.97,-0.38 -2.73,-1.12 -0.75,-0.76 -1.13,-1.66 -1.13,-2.73l0 -25.45c0,-1.07 0.38,-1.97 1.13,-2.72 0.76,-0.76 1.66,-1.14 2.73,-1.14l10.52 0c1.26,0 2.47,0.21 3.62,0.62 1.14,0.42 2.16,1.01 3.03,1.77 0.87,0.78 1.56,1.72 2.08,2.83 0.51,1.13 0.77,2.39 0.77,3.8 0,1.04 -0.12,1.92 -0.36,2.66 -0.23,0.74 -0.52,1.35 -0.89,1.84 -0.35,0.48 -0.72,0.86 -1.1,1.12 -0.38,0.27 -0.71,0.44 -1.01,0.54 0.35,0.14 0.8,0.4 1.35,0.81 0.53,0.4 1.07,0.95 1.6,1.63 0.54,0.69 1,1.55 1.38,2.56 0.38,1.02 0.58,2.21 0.58,3.56 0,1.39 -0.3,2.66 -0.87,3.8 -0.58,1.15 -1.34,2.15 -2.28,2.97 -0.94,0.82 -2.04,1.47 -3.31,1.95 -1.26,0.46 -2.58,0.7 -3.93,0.7l-11.18 0 0 0 0 0zm-23.83 -25.98l0 9.4 4.6 0c0.65,0 1.25,-0.12 1.8,-0.38 0.57,-0.24 1.06,-0.59 1.49,-1.01 0.43,-0.42 0.76,-0.91 1.02,-1.48 0.25,-0.56 0.38,-1.16 0.38,-1.81 0,-0.65 -0.13,-1.26 -0.38,-1.84 -0.26,-0.58 -0.59,-1.07 -1.02,-1.51 -0.43,-0.42 -0.92,-0.76 -1.49,-1.01 -0.55,-0.24 -1.15,-0.36 -1.8,-0.36l-4.6 0 0 0 0 0zm15.43 19.39c0.44,0.36 0.77,0.79 0.99,1.29 0.22,0.49 0.33,1.01 0.33,1.55 0,0.41 -0.08,0.83 -0.24,1.25 -0.17,0.44 -0.4,0.83 -0.71,1.21 -0.31,0.39 -0.69,0.7 -1.17,0.94 -0.48,0.23 -1.01,0.35 -1.63,0.35 -0.45,0 -0.89,-0.07 -1.34,-0.19 -0.43,-0.15 -0.83,-0.37 -1.18,-0.69l-10.04 -8.62 -0.44 0 0 5.61c0,1.09 -0.38,2.01 -1.12,2.77 -0.76,0.74 -1.67,1.12 -2.77,1.12 -1.06,0 -1.97,-0.38 -2.71,-1.12 -0.76,-0.76 -1.13,-1.68 -1.13,-2.77l0 -25.41c0,-1.06 0.37,-1.97 1.13,-2.73 0.74,-0.75 1.65,-1.13 2.71,-1.13l8.58 0c1.61,0 3.15,0.33 4.6,0.93 1.43,0.62 2.7,1.48 3.79,2.57 1.1,1.09 1.94,2.35 2.56,3.8 0.62,1.45 0.93,2.98 0.93,4.6 0,2.29 -0.63,4.26 -1.9,5.91 -1.26,1.63 -3.11,2.87 -5.52,3.72l6.28 5.04z"/>
 </g>
</svg>
